<svg xmlns="http://www.w3.org/2000/svg" xmlns:xlink="http://www.w3.org/1999/xlink" width="1080" zoomAndPan="magnify" viewBox="0 0 810 1439.999935" height="1920" preserveAspectRatio="xMidYMid meet" version="1.0"><defs><g/><clipPath id="edb515ea6d"><rect x="0" width="204" y="0" height="467"/></clipPath><clipPath id="caa3f90c13"><rect x="0" width="256" y="0" height="269"/></clipPath><clipPath id="fece1f2bd7"><rect x="0" width="116" y="0" height="253"/></clipPath><clipPath id="f3eee462b7"><rect x="0" width="255" y="0" height="251"/></clipPath><clipPath id="0ba6413186"><rect x="0" width="220" y="0" height="220"/></clipPath><clipPath id="26d9fa4fe5"><rect x="0" width="438" y="0" height="205"/></clipPath><clipPath id="a27782bd7e"><rect x="0" width="205" y="0" height="468"/></clipPath><clipPath id="e82a428d07"><rect x="0" width="467" y="0" height="205"/></clipPath><clipPath id="1f85577c8d"><rect x="0" width="254" y="0" height="254"/></clipPath><clipPath id="15bf9a5b9c"><rect x="0" width="251" y="0" height="255"/></clipPath><clipPath id="a4ca672e1b"><rect x="0" width="254" y="0" height="254"/></clipPath><clipPath id="b4585e3efc"><rect x="0" width="117" y="0" height="254"/></clipPath><clipPath id="be5fc82a2c"><rect x="0" width="254" y="0" height="116"/></clipPath><clipPath id="078eeba1d9"><rect x="0" width="254" y="0" height="116"/></clipPath><clipPath id="0df19625e5"><rect x="0" width="256" y="0" height="269"/></clipPath><clipPath id="ea5f4477f0"><rect x="0" width="221" y="0" height="220"/></clipPath></defs><g transform="matrix(1, 0, 0, 1, 324, 512)"><g clip-path="url(#edb515ea6d)"><g fill="#000000" fill-opacity="1"><g transform="translate(0.00751945, 366.375554)"><g><path d="M 196.046875 -244.5625 L 196.046875 -203.90625 L 125.453125 -203.90625 L 125.453125 0 L 77.28125 0 L 77.28125 -203.90625 L 6.6875 -203.90625 L 6.6875 -244.5625 Z M 196.046875 -244.5625 "/></g></g></g></g></g><g transform="matrix(1, 0, 0, 1, 490, 587)"><g clip-path="url(#caa3f90c13)"><g fill="#000000" fill-opacity="1"><g transform="translate(131.086112, 227.098908)"><g><path d="M 10.859375 -9.46875 L -81.125 -115.046875 L -62.21875 -131.515625 L -27.28125 -91.421875 L -25.609375 -92.40625 C -26.316406 -98.289062 -25.71875 -103.816406 -23.8125 -108.984375 C -21.914062 -114.160156 -18.398438 -118.988281 -13.265625 -123.46875 C 3.347656 -137.945312 19.863281 -135.757812 36.28125 -116.90625 L 78.53125 -68.421875 L 59.625 -51.9375 L 19.46875 -98.03125 C 14.976562 -103.175781 10.695312 -106.015625 6.625 -106.546875 C 2.550781 -107.085938 -1.644531 -105.476562 -5.96875 -101.71875 C -11.25 -97.113281 -13.898438 -91.695312 -13.921875 -85.46875 C -13.953125 -79.25 -10.710938 -72.40625 -4.203125 -64.9375 L 29.765625 -25.9375 Z M 10.859375 -9.46875 "/></g></g></g></g></g><g transform="matrix(1, 0, 0, 1, 368, 641)"><g clip-path="url(#fece1f2bd7)"><g fill="#000000" fill-opacity="1"><g transform="translate(0.496725, 198.295122)"><g><path d="M 58.6875 1.90625 C 49.507812 1.90625 41.34375 0.773438 34.1875 -1.484375 C 27.03125 -3.753906 21.066406 -6.726562 16.296875 -10.40625 C 11.523438 -14.09375 7.875 -18.140625 5.34375 -22.546875 L 19.75 -40.125 L 22.015625 -40.125 C 25.992188 -34.207031 31.046875 -29.492188 37.171875 -25.984375 C 43.304688 -22.484375 50.476562 -20.734375 58.6875 -20.734375 C 65.695312 -20.734375 70.984375 -22.210938 74.546875 -25.171875 C 78.109375 -28.140625 79.890625 -32.21875 79.890625 -37.40625 C 79.890625 -40.550781 79.316406 -43.175781 78.171875 -45.28125 C 77.023438 -47.394531 75.117188 -49.207031 72.453125 -50.71875 C 69.796875 -52.226562 66.207031 -53.53125 61.6875 -54.625 L 44.65625 -58.515625 C 32.757812 -61.234375 23.894531 -65.742188 18.0625 -72.046875 C 12.238281 -78.359375 9.328125 -86.554688 9.328125 -96.640625 C 9.328125 -104.128906 11.195312 -110.710938 14.9375 -116.390625 C 18.6875 -122.066406 24.140625 -126.472656 31.296875 -129.609375 C 38.453125 -132.753906 47.007812 -134.328125 56.96875 -134.328125 C 67.175781 -134.328125 75.914062 -132.984375 83.1875 -130.296875 C 90.46875 -127.609375 96.613281 -123.488281 101.625 -117.9375 L 88.671875 -100.171875 L 86.40625 -100.171875 C 82.664062 -104.097656 78.378906 -107.039062 73.546875 -109 C 68.710938 -110.96875 63.1875 -111.953125 56.96875 -111.953125 C 49.78125 -111.953125 44.316406 -110.679688 40.578125 -108.140625 C 36.835938 -105.609375 34.96875 -102.109375 34.96875 -97.640625 C 34.96875 -93.472656 36.28125 -90.148438 38.90625 -87.671875 C 41.53125 -85.203125 46.070312 -83.269531 52.53125 -81.875 L 69.921875 -78.265625 C 82.785156 -75.546875 92.113281 -70.9375 97.90625 -64.4375 C 103.707031 -57.945312 106.609375 -49.476562 106.609375 -39.03125 C 106.609375 -30.757812 104.828125 -23.5625 101.265625 -17.4375 C 97.703125 -11.3125 92.328125 -6.554688 85.140625 -3.171875 C 77.953125 0.210938 69.132812 1.90625 58.6875 1.90625 Z M 58.6875 1.90625 "/></g></g></g></g></g><g transform="matrix(1, 0, 0, 1, 202, 340)"><g clip-path="url(#f3eee462b7)"><g fill="#000000" fill-opacity="1"><g transform="translate(111.777451, 38.193525)"><g><path d="M -66.484375 7.875 C -55.035156 -4 -44.847656 -11.082031 -35.921875 -13.375 C -26.992188 -15.664062 -19.421875 -13.816406 -13.203125 -7.828125 C -9.421875 -4.179688 -7.488281 0.0078125 -7.40625 4.75 C -7.332031 9.488281 -9.054688 14.507812 -12.578125 19.8125 L -11.21875 21.140625 C -7.394531 20.128906 -4.066406 19.960938 -1.234375 20.640625 C 1.585938 21.316406 4.195312 22.8125 6.59375 25.125 C 12.375 30.695312 12.640625 38.207031 7.390625 47.65625 L 8.765625 48.984375 C 14.703125 47.242188 20.253906 46.976562 25.421875 48.1875 C 30.597656 49.40625 35.507812 52.257812 40.15625 56.75 C 44.9375 61.351562 48.082031 66.5 49.59375 72.1875 C 51.113281 77.882812 50.835938 83.828125 48.765625 90.015625 C 46.703125 96.210938 42.820312 102.265625 37.125 108.171875 C 31.34375 114.171875 25.679688 117.941406 20.140625 119.484375 C 21.222656 124.804688 23.707031 129.675781 27.59375 134.09375 L 27.125 136.265625 L 11.40625 146.171875 C 8.351562 142.472656 6.441406 138.695312 5.671875 134.84375 C 4.898438 130.988281 5.226562 126.488281 6.65625 121.34375 L 5.234375 119.96875 C -2.234375 120.550781 -9.160156 117.765625 -15.546875 111.609375 C -19.984375 107.328125 -22.890625 102.378906 -24.265625 96.765625 C -25.640625 91.148438 -25.304688 85.238281 -23.265625 79.03125 C -21.222656 72.832031 -17.394531 66.820312 -11.78125 61 L -9.0625 58.328125 C -7.300781 56.671875 -6.085938 55.492188 -5.421875 54.796875 C -3.828125 53.148438 -3.023438 51.425781 -3.015625 49.625 C -3.003906 47.832031 -3.695312 46.265625 -5.09375 44.921875 C -6.613281 43.453125 -8.382812 42.914062 -10.40625 43.3125 C -12.425781 43.71875 -14.609375 45.054688 -16.953125 47.328125 L -33.0625 62.875 C -48.894531 78.3125 -63.421875 79.65625 -76.640625 66.90625 C -81.285156 62.425781 -84.28125 57.25 -85.625 51.375 C -86.96875 45.507812 -86.144531 38.898438 -83.15625 31.546875 C -80.164062 24.191406 -74.609375 16.300781 -66.484375 7.875 Z M 0.875 73.203125 C -2.476562 76.679688 -4.078125 80.382812 -3.921875 84.3125 C -3.765625 88.238281 -1.796875 92.019531 1.984375 95.65625 C 5.765625 99.300781 9.609375 101.125 13.515625 101.125 C 17.421875 101.125 21.050781 99.382812 24.40625 95.90625 C 27.800781 92.382812 29.410156 88.691406 29.234375 84.828125 C 29.054688 80.960938 27.078125 77.207031 23.296875 73.5625 C 19.472656 69.875 15.628906 68.007812 11.765625 67.96875 C 7.898438 67.9375 4.269531 69.679688 0.875 73.203125 Z M -53.375 20.5 C -59.320312 26.664062 -62.78125 31.988281 -63.75 36.46875 C -64.71875 40.945312 -63.8125 44.53125 -61.03125 47.21875 C -58.78125 49.394531 -56.425781 50.28125 -53.96875 49.875 C -51.519531 49.46875 -48.738281 47.742188 -45.625 44.703125 L -31.28125 31.125 C -30.8125 30.644531 -30.351562 30.21875 -29.90625 29.84375 C -29.46875 29.476562 -29.0625 29.097656 -28.6875 28.703125 C -25.75 25.660156 -24.164062 22.710938 -23.9375 19.859375 C -23.71875 17.015625 -24.757812 14.484375 -27.0625 12.265625 C -30.101562 9.328125 -33.851562 8.519531 -38.3125 9.84375 C -42.78125 11.164062 -47.800781 14.71875 -53.375 20.5 Z M -53.375 20.5 "/></g></g></g></g></g><g transform="matrix(1, 0, 0, 1, 144, 636)"><g clip-path="url(#0ba6413186)"><g fill="#000000" fill-opacity="1"><g transform="translate(39.003013, 140.194021)"><g><path d="M 27.984375 30.671875 C 21.617188 24.304688 18.476562 17.726562 18.5625 10.9375 C 18.65625 4.15625 22.203125 -2.734375 29.203125 -9.734375 L 108.75 -89.28125 L 126.5 -71.53125 L 47.65625 7.3125 C 43.351562 11.613281 42.992188 15.554688 46.578125 19.140625 C 47.597656 20.160156 48.847656 21.078125 50.328125 21.890625 L 50.984375 23.046875 L 38.953125 38.296875 C 37.441406 37.828125 35.726562 36.929688 33.8125 35.609375 C 31.894531 34.285156 29.953125 32.640625 27.984375 30.671875 Z M 27.984375 30.671875 "/></g></g></g></g></g><g transform="matrix(1, 0, 0, 1, 372, 477)"><g clip-path="url(#26d9fa4fe5)"><g fill="#000000" fill-opacity="1"><g transform="translate(366.140311, 204.120742)"><g><path d="M -244.5625 -196.046875 L -203.90625 -196.046875 L -203.90625 -125.453125 L 0 -125.453125 L 0 -77.28125 L -203.90625 -77.28125 L -203.90625 -6.6875 L -244.5625 -6.6875 Z M -244.5625 -196.046875 "/></g></g></g></g></g><g transform="matrix(1, 0, 0, 1, 322, 180)"><g clip-path="url(#a27782bd7e)"><g fill="#000000" fill-opacity="1"><g transform="translate(204.753566, 101.218573)"><g><path d="M -196.046875 244.5625 L -196.046875 203.90625 L -125.453125 203.90625 L -125.453125 0 L -77.28125 0 L -77.28125 203.90625 L -6.6875 203.90625 L -6.6875 244.5625 Z M -196.046875 244.5625 "/></g></g></g></g></g><g transform="matrix(1, 0, 0, 1, 24, 478)"><g clip-path="url(#e82a428d07)"><g fill="#000000" fill-opacity="1"><g transform="translate(100.688417, 0.374694)"><g><path d="M 244.5625 196.046875 L 203.90625 196.046875 L 203.90625 125.453125 L 0 125.453125 L 0 77.28125 L 203.90625 77.28125 L 203.90625 6.6875 L 244.5625 6.6875 Z M 244.5625 196.046875 "/></g></g></g></g></g><g transform="matrix(1, 0, 0, 1, 400, 554)"><g clip-path="url(#1f85577c8d)"><g fill="#000000" fill-opacity="1"><g transform="translate(140.824949, 214.661794)"><g><path d="M 66.609375 -6.671875 C 54.941406 4.992188 44.625 11.890625 35.65625 14.015625 C 26.695312 16.148438 19.164062 14.164062 13.0625 8.0625 C 9.351562 4.351562 7.5 0.128906 7.5 -4.609375 C 7.5 -9.347656 9.3125 -14.34375 12.9375 -19.59375 L 11.59375 -20.9375 C 7.757812 -20 4.429688 -19.894531 1.609375 -20.625 C -1.210938 -21.351562 -3.796875 -22.890625 -6.140625 -25.234375 C -11.816406 -30.910156 -11.945312 -38.425781 -6.53125 -47.78125 L -7.875 -49.125 C -13.851562 -47.5 -19.414062 -47.335938 -24.5625 -48.640625 C -29.707031 -49.941406 -34.566406 -52.878906 -39.140625 -57.453125 C -43.835938 -62.148438 -46.890625 -67.359375 -48.296875 -73.078125 C -49.703125 -78.796875 -49.3125 -84.726562 -47.125 -90.875 C -44.945312 -97.03125 -40.957031 -103.007812 -35.15625 -108.8125 C -29.269531 -114.695312 -23.546875 -118.367188 -17.984375 -119.828125 C -18.960938 -125.160156 -21.359375 -130.078125 -25.171875 -134.578125 L -24.671875 -136.734375 L -8.78125 -146.34375 C -5.78125 -142.59375 -3.929688 -138.785156 -3.234375 -134.921875 C -2.535156 -131.054688 -2.945312 -126.5625 -4.46875 -121.4375 L -3.0625 -120.03125 C 4.40625 -120.5 11.28125 -117.59375 17.5625 -111.3125 C 21.914062 -106.957031 24.726562 -101.957031 26 -96.3125 C 27.28125 -90.675781 26.84375 -84.773438 24.6875 -78.609375 C 22.53125 -72.441406 18.59375 -66.5 12.875 -60.78125 L 10.125 -58.15625 C 8.332031 -56.53125 7.09375 -55.375 6.40625 -54.6875 C 4.789062 -53.070312 3.957031 -51.363281 3.90625 -49.5625 C 3.863281 -47.769531 4.523438 -46.191406 5.890625 -44.828125 C 7.390625 -43.328125 9.148438 -42.757812 11.171875 -43.125 C 13.203125 -43.5 15.410156 -44.796875 17.796875 -47.015625 L 34.1875 -62.25 C 50.289062 -77.414062 64.835938 -78.503906 77.828125 -65.515625 C 82.390625 -60.953125 85.289062 -55.722656 86.53125 -49.828125 C 87.769531 -43.929688 86.828125 -37.332031 83.703125 -30.03125 C 80.578125 -22.726562 74.878906 -14.941406 66.609375 -6.671875 Z M 0.453125 -73.203125 C 3.867188 -76.617188 5.53125 -80.289062 5.4375 -84.21875 C 5.351562 -88.15625 3.457031 -91.976562 -0.25 -95.6875 C -3.96875 -99.40625 -7.78125 -101.296875 -11.6875 -101.359375 C -15.59375 -101.421875 -19.253906 -99.742188 -22.671875 -96.328125 C -26.128906 -92.867188 -27.804688 -89.207031 -27.703125 -85.34375 C -27.597656 -81.476562 -25.6875 -77.6875 -21.96875 -73.96875 C -18.21875 -70.21875 -14.40625 -68.285156 -10.53125 -68.171875 C -6.664062 -68.066406 -3.003906 -69.742188 0.453125 -73.203125 Z M 53.75 -19.53125 C 59.8125 -25.59375 63.363281 -30.859375 64.40625 -35.328125 C 65.445312 -39.796875 64.601562 -43.394531 61.875 -46.125 C 59.65625 -48.34375 57.316406 -49.265625 54.859375 -48.890625 C 52.410156 -48.523438 49.601562 -46.851562 46.4375 -43.875 L 31.828125 -30.546875 C 31.359375 -30.078125 30.898438 -29.660156 30.453125 -29.296875 C 30.003906 -28.929688 29.585938 -28.554688 29.203125 -28.171875 C 26.210938 -25.179688 24.578125 -22.265625 24.296875 -19.421875 C 24.023438 -16.585938 25.019531 -14.039062 27.28125 -11.78125 C 30.269531 -8.789062 34.007812 -7.914062 38.5 -9.15625 C 42.988281 -10.394531 48.070312 -13.851562 53.75 -19.53125 Z M 53.75 -19.53125 "/></g></g></g></g></g><g transform="matrix(1, 0, 0, 1, 402, 356)"><g clip-path="url(#15bf9a5b9c)"><g fill="#000000" fill-opacity="1"><g transform="translate(212.800469, 112.138766)"><g><path d="M -7.875 -66.484375 C 4 -55.035156 11.082031 -44.847656 13.375 -35.921875 C 15.664062 -26.992188 13.816406 -19.421875 7.828125 -13.203125 C 4.179688 -9.421875 -0.0078125 -7.488281 -4.75 -7.40625 C -9.488281 -7.332031 -14.507812 -9.054688 -19.8125 -12.578125 L -21.140625 -11.21875 C -20.128906 -7.394531 -19.960938 -4.066406 -20.640625 -1.234375 C -21.316406 1.585938 -22.8125 4.195312 -25.125 6.59375 C -30.695312 12.375 -38.207031 12.640625 -47.65625 7.390625 L -48.984375 8.765625 C -47.242188 14.703125 -46.976562 20.253906 -48.1875 25.421875 C -49.40625 30.597656 -52.257812 35.507812 -56.75 40.15625 C -61.351562 44.9375 -66.5 48.082031 -72.1875 49.59375 C -77.882812 51.113281 -83.828125 50.835938 -90.015625 48.765625 C -96.210938 46.703125 -102.265625 42.820312 -108.171875 37.125 C -114.171875 31.34375 -117.941406 25.679688 -119.484375 20.140625 C -124.804688 21.222656 -129.675781 23.707031 -134.09375 27.59375 L -136.265625 27.125 L -146.171875 11.40625 C -142.472656 8.351562 -138.695312 6.441406 -134.84375 5.671875 C -130.988281 4.898438 -126.488281 5.226562 -121.34375 6.65625 L -119.96875 5.234375 C -120.550781 -2.234375 -117.765625 -9.160156 -111.609375 -15.546875 C -107.328125 -19.984375 -102.378906 -22.890625 -96.765625 -24.265625 C -91.148438 -25.640625 -85.238281 -25.304688 -79.03125 -23.265625 C -72.832031 -21.222656 -66.820312 -17.394531 -61 -11.78125 L -58.328125 -9.0625 C -56.671875 -7.300781 -55.492188 -6.085938 -54.796875 -5.421875 C -53.148438 -3.828125 -51.425781 -3.023438 -49.625 -3.015625 C -47.832031 -3.003906 -46.265625 -3.695312 -44.921875 -5.09375 C -43.453125 -6.613281 -42.914062 -8.382812 -43.3125 -10.40625 C -43.71875 -12.425781 -45.054688 -14.609375 -47.328125 -16.953125 L -62.875 -33.0625 C -78.3125 -48.894531 -79.65625 -63.421875 -66.90625 -76.640625 C -62.425781 -81.285156 -57.25 -84.28125 -51.375 -85.625 C -45.507812 -86.96875 -38.898438 -86.144531 -31.546875 -83.15625 C -24.191406 -80.164062 -16.300781 -74.609375 -7.875 -66.484375 Z M -73.203125 0.875 C -76.679688 -2.476562 -80.382812 -4.078125 -84.3125 -3.921875 C -88.238281 -3.765625 -92.019531 -1.796875 -95.65625 1.984375 C -99.300781 5.765625 -101.125 9.609375 -101.125 13.515625 C -101.125 17.421875 -99.382812 21.050781 -95.90625 24.40625 C -92.382812 27.800781 -88.691406 29.410156 -84.828125 29.234375 C -80.960938 29.054688 -77.207031 27.078125 -73.5625 23.296875 C -69.875 19.472656 -68.007812 15.628906 -67.96875 11.765625 C -67.9375 7.898438 -69.679688 4.269531 -73.203125 0.875 Z M -20.5 -53.375 C -26.664062 -59.320312 -31.988281 -62.78125 -36.46875 -63.75 C -40.945312 -64.71875 -44.53125 -63.8125 -47.21875 -61.03125 C -49.394531 -58.78125 -50.28125 -56.425781 -49.875 -53.96875 C -49.46875 -51.519531 -47.742188 -48.738281 -44.703125 -45.625 L -31.125 -31.28125 C -30.644531 -30.8125 -30.21875 -30.351562 -29.84375 -29.90625 C -29.476562 -29.46875 -29.097656 -29.0625 -28.703125 -28.6875 C -25.660156 -25.75 -22.710938 -24.164062 -19.859375 -23.9375 C -17.015625 -23.71875 -14.484375 -24.757812 -12.265625 -27.0625 C -9.328125 -30.101562 -8.519531 -33.851562 -9.84375 -38.3125 C -11.164062 -42.78125 -14.71875 -47.800781 -20.5 -53.375 Z M -20.5 -53.375 "/></g></g></g></g></g><g transform="matrix(1, 0, 0, 1, 185, 554)"><g clip-path="url(#a4ca672e1b)"><g fill="#000000" fill-opacity="1"><g transform="translate(39.332199, 141.186235)"><g><path d="M 6.671875 66.609375 C -4.992188 54.941406 -11.890625 44.625 -14.015625 35.65625 C -16.148438 26.695312 -14.164062 19.164062 -8.0625 13.0625 C -4.351562 9.351562 -0.128906 7.5 4.609375 7.5 C 9.347656 7.5 14.34375 9.3125 19.59375 12.9375 L 20.9375 11.59375 C 20 7.757812 19.894531 4.429688 20.625 1.609375 C 21.351562 -1.210938 22.890625 -3.796875 25.234375 -6.140625 C 30.910156 -11.816406 38.425781 -11.945312 47.78125 -6.53125 L 49.125 -7.875 C 47.5 -13.851562 47.335938 -19.414062 48.640625 -24.5625 C 49.941406 -29.707031 52.878906 -34.566406 57.453125 -39.140625 C 62.148438 -43.835938 67.359375 -46.890625 73.078125 -48.296875 C 78.796875 -49.703125 84.726562 -49.3125 90.875 -47.125 C 97.03125 -44.945312 103.007812 -40.957031 108.8125 -35.15625 C 114.695312 -29.269531 118.367188 -23.546875 119.828125 -17.984375 C 125.160156 -18.960938 130.078125 -21.359375 134.578125 -25.171875 L 136.734375 -24.671875 L 146.34375 -8.78125 C 142.59375 -5.78125 138.785156 -3.929688 134.921875 -3.234375 C 131.054688 -2.535156 126.5625 -2.945312 121.4375 -4.46875 L 120.03125 -3.0625 C 120.5 4.40625 117.59375 11.28125 111.3125 17.5625 C 106.957031 21.914062 101.957031 24.726562 96.3125 26 C 90.675781 27.28125 84.773438 26.84375 78.609375 24.6875 C 72.441406 22.53125 66.5 18.59375 60.78125 12.875 L 58.15625 10.125 C 56.53125 8.332031 55.375 7.09375 54.6875 6.40625 C 53.070312 4.789062 51.363281 3.957031 49.5625 3.90625 C 47.769531 3.863281 46.191406 4.523438 44.828125 5.890625 C 43.328125 7.390625 42.757812 9.148438 43.125 11.171875 C 43.5 13.203125 44.796875 15.410156 47.015625 17.796875 L 62.25 34.1875 C 77.414062 50.289062 78.503906 64.835938 65.515625 77.828125 C 60.953125 82.390625 55.722656 85.289062 49.828125 86.53125 C 43.929688 87.769531 37.332031 86.828125 30.03125 83.703125 C 22.726562 80.578125 14.941406 74.878906 6.671875 66.609375 Z M 73.203125 0.453125 C 76.617188 3.867188 80.289062 5.53125 84.21875 5.4375 C 88.15625 5.351562 91.976562 3.457031 95.6875 -0.25 C 99.40625 -3.96875 101.296875 -7.78125 101.359375 -11.6875 C 101.421875 -15.59375 99.742188 -19.253906 96.328125 -22.671875 C 92.867188 -26.128906 89.207031 -27.804688 85.34375 -27.703125 C 81.476562 -27.597656 77.6875 -25.6875 73.96875 -21.96875 C 70.21875 -18.21875 68.285156 -14.40625 68.171875 -10.53125 C 68.066406 -6.664062 69.742188 -3.003906 73.203125 0.453125 Z M 19.53125 53.75 C 25.59375 59.8125 30.859375 63.363281 35.328125 64.40625 C 39.796875 65.445312 43.394531 64.601562 46.125 61.875 C 48.34375 59.65625 49.265625 57.316406 48.890625 54.859375 C 48.523438 52.410156 46.851562 49.601562 43.875 46.4375 L 30.546875 31.828125 C 30.078125 31.359375 29.660156 30.898438 29.296875 30.453125 C 28.929688 30.003906 28.554688 29.585938 28.171875 29.203125 C 25.179688 26.210938 22.265625 24.578125 19.421875 24.296875 C 16.585938 24.023438 14.039062 25.019531 11.78125 27.28125 C 8.789062 30.269531 7.914062 34.007812 9.15625 38.5 C 10.394531 42.988281 13.851562 48.070312 19.53125 53.75 Z M 19.53125 53.75 "/></g></g></g></g></g><g transform="matrix(1, 0, 0, 1, 369, 246)"><g clip-path="url(#b4585e3efc)"><g fill="#000000" fill-opacity="1"><g transform="translate(1.031588, 198.870991)"><g><path d="M 58.6875 1.90625 C 49.507812 1.90625 41.34375 0.773438 34.1875 -1.484375 C 27.03125 -3.753906 21.066406 -6.726562 16.296875 -10.40625 C 11.523438 -14.09375 7.875 -18.140625 5.34375 -22.546875 L 19.75 -40.125 L 22.015625 -40.125 C 25.992188 -34.207031 31.046875 -29.492188 37.171875 -25.984375 C 43.304688 -22.484375 50.476562 -20.734375 58.6875 -20.734375 C 65.695312 -20.734375 70.984375 -22.210938 74.546875 -25.171875 C 78.109375 -28.140625 79.890625 -32.21875 79.890625 -37.40625 C 79.890625 -40.550781 79.316406 -43.175781 78.171875 -45.28125 C 77.023438 -47.394531 75.117188 -49.207031 72.453125 -50.71875 C 69.796875 -52.226562 66.207031 -53.53125 61.6875 -54.625 L 44.65625 -58.515625 C 32.757812 -61.234375 23.894531 -65.742188 18.0625 -72.046875 C 12.238281 -78.359375 9.328125 -86.554688 9.328125 -96.640625 C 9.328125 -104.128906 11.195312 -110.710938 14.9375 -116.390625 C 18.6875 -122.066406 24.140625 -126.472656 31.296875 -129.609375 C 38.453125 -132.753906 47.007812 -134.328125 56.96875 -134.328125 C 67.175781 -134.328125 75.914062 -132.984375 83.1875 -130.296875 C 90.46875 -127.609375 96.613281 -123.488281 101.625 -117.9375 L 88.671875 -100.171875 L 86.40625 -100.171875 C 82.664062 -104.097656 78.378906 -107.039062 73.546875 -109 C 68.710938 -110.96875 63.1875 -111.953125 56.96875 -111.953125 C 49.78125 -111.953125 44.316406 -110.679688 40.578125 -108.140625 C 36.835938 -105.609375 34.96875 -102.109375 34.96875 -97.640625 C 34.96875 -93.472656 36.28125 -90.148438 38.90625 -87.671875 C 41.53125 -85.203125 46.070312 -83.269531 52.53125 -81.875 L 69.921875 -78.265625 C 82.785156 -75.546875 92.113281 -70.9375 97.90625 -64.4375 C 103.707031 -57.945312 106.609375 -49.476562 106.609375 -39.03125 C 106.609375 -30.757812 104.828125 -23.5625 101.265625 -17.4375 C 97.703125 -11.3125 92.328125 -6.554688 85.140625 -3.171875 C 77.953125 0.210938 69.132812 1.90625 58.6875 1.90625 Z M 58.6875 1.90625 "/></g></g></g></g></g><g transform="matrix(1, 0, 0, 1, 103, 522)"><g clip-path="url(#be5fc82a2c)"><g fill="#000000" fill-opacity="1"><g transform="translate(54.859467, 0.0955597)"><g><path d="M -1.90625 58.6875 C -1.90625 49.507812 -0.773438 41.34375 1.484375 34.1875 C 3.753906 27.03125 6.726562 21.066406 10.40625 16.296875 C 14.09375 11.523438 18.140625 7.875 22.546875 5.34375 L 40.125 19.75 L 40.125 22.015625 C 34.207031 25.992188 29.492188 31.046875 25.984375 37.171875 C 22.484375 43.304688 20.734375 50.476562 20.734375 58.6875 C 20.734375 65.695312 22.210938 70.984375 25.171875 74.546875 C 28.140625 78.109375 32.21875 79.890625 37.40625 79.890625 C 40.550781 79.890625 43.175781 79.316406 45.28125 78.171875 C 47.394531 77.023438 49.207031 75.117188 50.71875 72.453125 C 52.226562 69.796875 53.53125 66.207031 54.625 61.6875 L 58.515625 44.65625 C 61.234375 32.757812 65.742188 23.894531 72.046875 18.0625 C 78.359375 12.238281 86.554688 9.328125 96.640625 9.328125 C 104.128906 9.328125 110.710938 11.195312 116.390625 14.9375 C 122.066406 18.6875 126.472656 24.140625 129.609375 31.296875 C 132.753906 38.453125 134.328125 47.007812 134.328125 56.96875 C 134.328125 67.175781 132.984375 75.914062 130.296875 83.1875 C 127.609375 90.46875 123.488281 96.613281 117.9375 101.625 L 100.171875 88.671875 L 100.171875 86.40625 C 104.097656 82.664062 107.039062 78.378906 109 73.546875 C 110.96875 68.710938 111.953125 63.1875 111.953125 56.96875 C 111.953125 49.78125 110.679688 44.316406 108.140625 40.578125 C 105.609375 36.835938 102.109375 34.96875 97.640625 34.96875 C 93.472656 34.96875 90.148438 36.28125 87.671875 38.90625 C 85.203125 41.53125 83.269531 46.070312 81.875 52.53125 L 78.265625 69.921875 C 75.546875 82.785156 70.9375 92.113281 64.4375 97.90625 C 57.945312 103.707031 49.476562 106.609375 39.03125 106.609375 C 30.757812 106.609375 23.5625 104.828125 17.4375 101.265625 C 11.3125 97.703125 6.554688 92.328125 3.171875 85.140625 C -0.210938 77.953125 -1.90625 69.132812 -1.90625 58.6875 Z M -1.90625 58.6875 "/></g></g></g></g></g><g transform="matrix(1, 0, 0, 1, 497, 523)"><g clip-path="url(#078eeba1d9)"><g fill="#000000" fill-opacity="1"><g transform="translate(55.283643, 0.630423)"><g><path d="M -1.90625 58.6875 C -1.90625 49.507812 -0.773438 41.34375 1.484375 34.1875 C 3.753906 27.03125 6.726562 21.066406 10.40625 16.296875 C 14.09375 11.523438 18.140625 7.875 22.546875 5.34375 L 40.125 19.75 L 40.125 22.015625 C 34.207031 25.992188 29.492188 31.046875 25.984375 37.171875 C 22.484375 43.304688 20.734375 50.476562 20.734375 58.6875 C 20.734375 65.695312 22.210938 70.984375 25.171875 74.546875 C 28.140625 78.109375 32.21875 79.890625 37.40625 79.890625 C 40.550781 79.890625 43.175781 79.316406 45.28125 78.171875 C 47.394531 77.023438 49.207031 75.117188 50.71875 72.453125 C 52.226562 69.796875 53.53125 66.207031 54.625 61.6875 L 58.515625 44.65625 C 61.234375 32.757812 65.742188 23.894531 72.046875 18.0625 C 78.359375 12.238281 86.554688 9.328125 96.640625 9.328125 C 104.128906 9.328125 110.710938 11.195312 116.390625 14.9375 C 122.066406 18.6875 126.472656 24.140625 129.609375 31.296875 C 132.753906 38.453125 134.328125 47.007812 134.328125 56.96875 C 134.328125 67.175781 132.984375 75.914062 130.296875 83.1875 C 127.609375 90.46875 123.488281 96.613281 117.9375 101.625 L 100.171875 88.671875 L 100.171875 86.40625 C 104.097656 82.664062 107.039062 78.378906 109 73.546875 C 110.96875 68.710938 111.953125 63.1875 111.953125 56.96875 C 111.953125 49.78125 110.679688 44.316406 108.140625 40.578125 C 105.609375 36.835938 102.109375 34.96875 97.640625 34.96875 C 93.472656 34.96875 90.148438 36.28125 87.671875 38.90625 C 85.203125 41.53125 83.269531 46.070312 81.875 52.53125 L 78.265625 69.921875 C 75.546875 82.785156 70.9375 92.113281 64.4375 97.90625 C 57.945312 103.707031 49.476562 106.609375 39.03125 106.609375 C 30.757812 106.609375 23.5625 104.828125 17.4375 101.265625 C 11.3125 97.703125 6.554688 92.328125 3.171875 85.140625 C -0.210938 77.953125 -1.90625 69.132812 -1.90625 58.6875 Z M -1.90625 58.6875 "/></g></g></g></g></g><g transform="matrix(1, 0, 0, 1, 108, 280)"><g clip-path="url(#0df19625e5)"><g fill="#000000" fill-opacity="1"><g transform="translate(124.727419, 41.284062)"><g><path d="M -10.859375 9.46875 L 81.171875 115 L 62.265625 131.484375 L 27.328125 91.421875 L 25.65625 92.390625 C 26.363281 98.265625 25.769531 103.789062 23.875 108.96875 C 21.988281 114.15625 18.472656 118.988281 13.328125 123.46875 C -3.273438 137.945312 -19.796875 135.765625 -36.234375 116.921875 L -78.5 68.453125 L -59.59375 51.96875 L -19.40625 98.046875 C -14.925781 103.191406 -10.648438 106.03125 -6.578125 106.5625 C -2.503906 107.09375 1.691406 105.472656 6.015625 101.703125 C 11.296875 97.097656 13.945312 91.679688 13.96875 85.453125 C 13.988281 79.234375 10.738281 72.394531 4.21875 64.9375 L -29.765625 25.953125 Z M -10.859375 9.46875 "/></g></g></g></g></g><g transform="matrix(1, 0, 0, 1, 472, 315)"><g clip-path="url(#ea5f4477f0)"><g fill="#000000" fill-opacity="1"><g transform="translate(181.539011, 79.512126)"><g><path d="M -27.984375 -30.671875 C -21.617188 -24.304688 -18.476562 -17.726562 -18.5625 -10.9375 C -18.65625 -4.15625 -22.203125 2.734375 -29.203125 9.734375 L -108.75 89.28125 L -126.5 71.53125 L -47.65625 -7.3125 C -43.351562 -11.613281 -42.992188 -15.554688 -46.578125 -19.140625 C -47.597656 -20.160156 -48.847656 -21.078125 -50.328125 -21.890625 L -50.984375 -23.046875 L -38.953125 -38.296875 C -37.441406 -37.828125 -35.726562 -36.929688 -33.8125 -35.609375 C -31.894531 -34.285156 -29.953125 -32.640625 -27.984375 -30.671875 Z M -27.984375 -30.671875 "/></g></g></g></g></g><g fill="#000000" fill-opacity="1"><g transform="translate(347.102038, 724.502845)"><g><path d="M 4.6875 0 L 3 0 L 3 -3.359375 L 0.046875 -8.5625 L 1.859375 -8.5625 L 3.8125 -5.203125 L 3.96875 -5.203125 L 5.875 -8.5625 L 7.65625 -8.5625 L 4.6875 -3.359375 Z M 4.6875 0 "/></g></g></g><g fill="#000000" fill-opacity="1"><g transform="translate(353.963365, 724.502845)"><g><path d="M 3.75 0.125 C 3.125 0.125 2.570312 -0.00390625 2.09375 -0.265625 C 1.613281 -0.523438 1.238281 -0.90625 0.96875 -1.40625 C 0.707031 -1.90625 0.578125 -2.515625 0.578125 -3.234375 C 0.578125 -3.941406 0.707031 -4.546875 0.96875 -5.046875 C 1.238281 -5.554688 1.613281 -5.941406 2.09375 -6.203125 C 2.570312 -6.460938 3.125 -6.59375 3.75 -6.59375 C 4.382812 -6.59375 4.941406 -6.460938 5.421875 -6.203125 C 5.898438 -5.941406 6.269531 -5.554688 6.53125 -5.046875 C 6.800781 -4.546875 6.9375 -3.941406 6.9375 -3.234375 C 6.9375 -2.515625 6.800781 -1.90625 6.53125 -1.40625 C 6.269531 -0.90625 5.898438 -0.523438 5.421875 -0.265625 C 4.941406 -0.00390625 4.382812 0.125 3.75 0.125 Z M 3.75 -1.25 C 4.757812 -1.25 5.265625 -1.910156 5.265625 -3.234375 C 5.265625 -3.910156 5.132812 -4.40625 4.875 -4.71875 C 4.613281 -5.039062 4.238281 -5.203125 3.75 -5.203125 C 2.75 -5.203125 2.25 -4.546875 2.25 -3.234375 C 2.25 -1.910156 2.75 -1.25 3.75 -1.25 Z M 3.75 -1.25 "/></g></g><g transform="translate(361.475083, 724.502845)"><g><path d="M 2.953125 0.125 C 2.234375 0.125 1.695312 -0.0703125 1.34375 -0.46875 C 1 -0.863281 0.828125 -1.4375 0.828125 -2.1875 L 0.828125 -6.46875 L 2.453125 -6.46875 L 2.453125 -2.390625 C 2.453125 -1.992188 2.535156 -1.703125 2.703125 -1.515625 C 2.878906 -1.335938 3.144531 -1.25 3.5 -1.25 C 3.945312 -1.25 4.296875 -1.394531 4.546875 -1.6875 C 4.796875 -1.988281 4.921875 -2.453125 4.921875 -3.078125 L 4.921875 -6.46875 L 6.546875 -6.46875 L 6.546875 0 L 4.984375 0 L 4.984375 -0.953125 L 4.859375 -0.984375 C 4.648438 -0.609375 4.394531 -0.328125 4.09375 -0.140625 C 3.800781 0.0351562 3.421875 0.125 2.953125 0.125 Z M 2.953125 0.125 "/></g></g><g transform="translate(368.951645, 724.502845)"><g><path d="M 0.9375 0 L 0.9375 -6.46875 L 2.515625 -6.46875 L 2.515625 -5.5 L 2.625 -5.484375 C 2.78125 -5.835938 2.984375 -6.097656 3.234375 -6.265625 C 3.492188 -6.429688 3.804688 -6.515625 4.171875 -6.515625 C 4.535156 -6.515625 4.816406 -6.453125 5.015625 -6.328125 L 4.734375 -4.9375 L 4.609375 -4.90625 C 4.503906 -4.945312 4.398438 -4.976562 4.296875 -5 C 4.203125 -5.019531 4.085938 -5.03125 3.953125 -5.03125 C 3.492188 -5.03125 3.144531 -4.867188 2.90625 -4.546875 C 2.675781 -4.234375 2.5625 -3.726562 2.5625 -3.03125 L 2.5625 0 Z M 0.9375 0 "/></g></g><g transform="translate(374.020004, 724.502845)"><g/></g><g transform="translate(376.850082, 724.502845)"><g><path d="M 0.9375 2.625 L 0.9375 -6.46875 L 2.5625 -6.46875 L 2.5625 -5.625 L 2.671875 -5.59375 C 2.867188 -5.925781 3.125 -6.175781 3.4375 -6.34375 C 3.757812 -6.507812 4.140625 -6.59375 4.578125 -6.59375 C 5.085938 -6.59375 5.535156 -6.46875 5.921875 -6.21875 C 6.316406 -5.96875 6.625 -5.59375 6.84375 -5.09375 C 7.0625 -4.59375 7.171875 -3.972656 7.171875 -3.234375 C 7.171875 -2.492188 7.054688 -1.875 6.828125 -1.375 C 6.597656 -0.875 6.28125 -0.5 5.875 -0.25 C 5.46875 0 5 0.125 4.46875 0.125 C 4.0625 0.125 3.710938 0.0546875 3.421875 -0.078125 C 3.128906 -0.210938 2.878906 -0.421875 2.671875 -0.703125 L 2.5625 -0.6875 L 2.5625 2.625 Z M 4.015625 -1.25 C 4.492188 -1.25 4.859375 -1.40625 5.109375 -1.71875 C 5.359375 -2.039062 5.484375 -2.546875 5.484375 -3.234375 C 5.484375 -3.910156 5.359375 -4.40625 5.109375 -4.71875 C 4.859375 -5.039062 4.492188 -5.203125 4.015625 -5.203125 C 3.554688 -5.203125 3.191406 -5.035156 2.921875 -4.703125 C 2.660156 -4.378906 2.53125 -3.890625 2.53125 -3.234375 C 2.53125 -2.566406 2.660156 -2.066406 2.921875 -1.734375 C 3.191406 -1.410156 3.554688 -1.25 4.015625 -1.25 Z M 4.015625 -1.25 "/></g></g><g transform="translate(384.590316, 724.502845)"><g><path d="M 2.515625 0.125 C 2.109375 0.125 1.75 0.0507812 1.4375 -0.09375 C 1.132812 -0.25 0.898438 -0.472656 0.734375 -0.765625 C 0.578125 -1.066406 0.5 -1.425781 0.5 -1.84375 C 0.5 -2.226562 0.578125 -2.546875 0.734375 -2.796875 C 0.898438 -3.054688 1.15625 -3.269531 1.5 -3.4375 C 1.84375 -3.601562 2.289062 -3.734375 2.84375 -3.828125 C 3.226562 -3.890625 3.519531 -3.957031 3.71875 -4.03125 C 3.925781 -4.101562 4.066406 -4.1875 4.140625 -4.28125 C 4.210938 -4.375 4.25 -4.492188 4.25 -4.640625 C 4.25 -4.847656 4.175781 -5.003906 4.03125 -5.109375 C 3.882812 -5.222656 3.644531 -5.28125 3.3125 -5.28125 C 2.945312 -5.28125 2.601562 -5.195312 2.28125 -5.03125 C 1.957031 -4.875 1.675781 -4.664062 1.4375 -4.40625 L 1.3125 -4.40625 L 0.640625 -5.4375 C 0.960938 -5.800781 1.359375 -6.082031 1.828125 -6.28125 C 2.304688 -6.488281 2.828125 -6.59375 3.390625 -6.59375 C 4.242188 -6.59375 4.859375 -6.410156 5.234375 -6.046875 C 5.617188 -5.679688 5.8125 -5.164062 5.8125 -4.5 L 5.8125 -1.6875 C 5.8125 -1.394531 5.941406 -1.25 6.203125 -1.25 C 6.296875 -1.25 6.390625 -1.269531 6.484375 -1.3125 L 6.5625 -1.28125 L 6.6875 -0.15625 C 6.59375 -0.09375 6.46875 -0.0390625 6.3125 0 C 6.15625 0.03125 5.976562 0.046875 5.78125 0.046875 C 5.394531 0.046875 5.09375 -0.0234375 4.875 -0.171875 C 4.65625 -0.328125 4.5 -0.5625 4.40625 -0.875 L 4.296875 -0.890625 C 3.972656 -0.210938 3.378906 0.125 2.515625 0.125 Z M 3.03125 -1.09375 C 3.40625 -1.09375 3.703125 -1.21875 3.921875 -1.46875 C 4.148438 -1.71875 4.265625 -2.066406 4.265625 -2.515625 L 4.265625 -3.171875 L 4.15625 -3.203125 C 4.0625 -3.117188 3.9375 -3.050781 3.78125 -3 C 3.625 -2.945312 3.394531 -2.894531 3.09375 -2.84375 C 2.738281 -2.789062 2.484375 -2.691406 2.328125 -2.546875 C 2.179688 -2.398438 2.109375 -2.195312 2.109375 -1.9375 C 2.109375 -1.664062 2.1875 -1.457031 2.34375 -1.3125 C 2.507812 -1.164062 2.738281 -1.09375 3.03125 -1.09375 Z M 3.03125 -1.09375 "/></g></g><g transform="translate(391.404768, 724.502845)"><g><path d="M 0.9375 0 L 0.9375 -6.46875 L 2.515625 -6.46875 L 2.515625 -5.5 L 2.625 -5.484375 C 2.78125 -5.835938 2.984375 -6.097656 3.234375 -6.265625 C 3.492188 -6.429688 3.804688 -6.515625 4.171875 -6.515625 C 4.535156 -6.515625 4.816406 -6.453125 5.015625 -6.328125 L 4.734375 -4.9375 L 4.609375 -4.90625 C 4.503906 -4.945312 4.398438 -4.976562 4.296875 -5 C 4.203125 -5.019531 4.085938 -5.03125 3.953125 -5.03125 C 3.492188 -5.03125 3.144531 -4.867188 2.90625 -4.546875 C 2.675781 -4.234375 2.5625 -3.726562 2.5625 -3.03125 L 2.5625 0 Z M 0.9375 0 "/></g></g></g><g fill="#000000" fill-opacity="1"><g transform="translate(396.35008, 724.502845)"><g><path d="M 2.515625 0.125 C 2.109375 0.125 1.75 0.0507812 1.4375 -0.09375 C 1.132812 -0.25 0.898438 -0.472656 0.734375 -0.765625 C 0.578125 -1.066406 0.5 -1.425781 0.5 -1.84375 C 0.5 -2.226562 0.578125 -2.546875 0.734375 -2.796875 C 0.898438 -3.054688 1.15625 -3.269531 1.5 -3.4375 C 1.84375 -3.601562 2.289062 -3.734375 2.84375 -3.828125 C 3.226562 -3.890625 3.519531 -3.957031 3.71875 -4.03125 C 3.925781 -4.101562 4.066406 -4.1875 4.140625 -4.28125 C 4.210938 -4.375 4.25 -4.492188 4.25 -4.640625 C 4.25 -4.847656 4.175781 -5.003906 4.03125 -5.109375 C 3.882812 -5.222656 3.644531 -5.28125 3.3125 -5.28125 C 2.945312 -5.28125 2.601562 -5.195312 2.28125 -5.03125 C 1.957031 -4.875 1.675781 -4.664062 1.4375 -4.40625 L 1.3125 -4.40625 L 0.640625 -5.4375 C 0.960938 -5.800781 1.359375 -6.082031 1.828125 -6.28125 C 2.304688 -6.488281 2.828125 -6.59375 3.390625 -6.59375 C 4.242188 -6.59375 4.859375 -6.410156 5.234375 -6.046875 C 5.617188 -5.679688 5.8125 -5.164062 5.8125 -4.5 L 5.8125 -1.6875 C 5.8125 -1.394531 5.941406 -1.25 6.203125 -1.25 C 6.296875 -1.25 6.390625 -1.269531 6.484375 -1.3125 L 6.5625 -1.28125 L 6.6875 -0.15625 C 6.59375 -0.09375 6.46875 -0.0390625 6.3125 0 C 6.15625 0.03125 5.976562 0.046875 5.78125 0.046875 C 5.394531 0.046875 5.09375 -0.0234375 4.875 -0.171875 C 4.65625 -0.328125 4.5 -0.5625 4.40625 -0.875 L 4.296875 -0.890625 C 3.972656 -0.210938 3.378906 0.125 2.515625 0.125 Z M 3.03125 -1.09375 C 3.40625 -1.09375 3.703125 -1.21875 3.921875 -1.46875 C 4.148438 -1.71875 4.265625 -2.066406 4.265625 -2.515625 L 4.265625 -3.171875 L 4.15625 -3.203125 C 4.0625 -3.117188 3.9375 -3.050781 3.78125 -3 C 3.625 -2.945312 3.394531 -2.894531 3.09375 -2.84375 C 2.738281 -2.789062 2.484375 -2.691406 2.328125 -2.546875 C 2.179688 -2.398438 2.109375 -2.195312 2.109375 -1.9375 C 2.109375 -1.664062 2.1875 -1.457031 2.34375 -1.3125 C 2.507812 -1.164062 2.738281 -1.09375 3.03125 -1.09375 Z M 3.03125 -1.09375 "/></g></g><g transform="translate(403.164533, 724.502845)"><g><path d="M 3.359375 2.75 C 2.285156 2.75 1.492188 2.59375 0.984375 2.28125 C 0.484375 1.96875 0.234375 1.53125 0.234375 0.96875 C 0.234375 0.625 0.335938 0.34375 0.546875 0.125 C 0.765625 -0.0820312 1.078125 -0.226562 1.484375 -0.3125 L 1.484375 -0.421875 C 1.265625 -0.554688 1.109375 -0.703125 1.015625 -0.859375 C 0.921875 -1.023438 0.875 -1.21875 0.875 -1.4375 C 0.875 -1.957031 1.210938 -2.304688 1.890625 -2.484375 L 1.890625 -2.609375 C 1.535156 -2.804688 1.269531 -3.050781 1.09375 -3.34375 C 0.925781 -3.644531 0.84375 -4.003906 0.84375 -4.421875 C 0.84375 -4.847656 0.941406 -5.222656 1.140625 -5.546875 C 1.335938 -5.878906 1.625 -6.132812 2 -6.3125 C 2.382812 -6.5 2.84375 -6.59375 3.375 -6.59375 C 3.90625 -6.59375 4.332031 -6.5 4.65625 -6.3125 C 4.851562 -6.59375 4.96875 -6.925781 5 -7.3125 L 5.125 -7.390625 L 6.296875 -7.09375 C 6.253906 -6.789062 6.160156 -6.53125 6.015625 -6.3125 C 5.878906 -6.101562 5.65625 -5.921875 5.34375 -5.765625 L 5.34375 -5.625 C 5.707031 -5.3125 5.890625 -4.867188 5.890625 -4.296875 C 5.890625 -3.890625 5.789062 -3.53125 5.59375 -3.21875 C 5.394531 -2.90625 5.101562 -2.65625 4.71875 -2.46875 C 4.34375 -2.28125 3.894531 -2.1875 3.375 -2.1875 L 3.125 -2.203125 C 2.96875 -2.203125 2.859375 -2.203125 2.796875 -2.203125 C 2.648438 -2.203125 2.535156 -2.160156 2.453125 -2.078125 C 2.367188 -2.003906 2.328125 -1.90625 2.328125 -1.78125 C 2.328125 -1.644531 2.378906 -1.535156 2.484375 -1.453125 C 2.597656 -1.378906 2.757812 -1.34375 2.96875 -1.34375 L 4.40625 -1.28125 C 5.84375 -1.238281 6.5625 -0.625 6.5625 0.5625 C 6.5625 0.976562 6.453125 1.347656 6.234375 1.671875 C 6.023438 2.003906 5.679688 2.265625 5.203125 2.453125 C 4.722656 2.648438 4.109375 2.75 3.359375 2.75 Z M 3.375 -3.328125 C 3.6875 -3.328125 3.925781 -3.414062 4.09375 -3.59375 C 4.269531 -3.78125 4.359375 -4.046875 4.359375 -4.390625 C 4.359375 -4.734375 4.269531 -4.992188 4.09375 -5.171875 C 3.925781 -5.347656 3.6875 -5.4375 3.375 -5.4375 C 3.050781 -5.4375 2.800781 -5.347656 2.625 -5.171875 C 2.457031 -4.992188 2.375 -4.734375 2.375 -4.390625 C 2.375 -4.046875 2.457031 -3.78125 2.625 -3.59375 C 2.800781 -3.414062 3.050781 -3.328125 3.375 -3.328125 Z M 3.359375 1.5625 C 3.910156 1.5625 4.3125 1.484375 4.5625 1.328125 C 4.8125 1.171875 4.9375 0.96875 4.9375 0.71875 C 4.9375 0.519531 4.867188 0.367188 4.734375 0.265625 C 4.609375 0.171875 4.40625 0.125 4.125 0.125 L 2.859375 0.0625 C 2.816406 0.0625 2.773438 0.0546875 2.734375 0.046875 C 2.691406 0.046875 2.65625 0.046875 2.625 0.046875 C 2.351562 0.046875 2.144531 0.101562 2 0.21875 C 1.851562 0.34375 1.78125 0.503906 1.78125 0.703125 C 1.78125 0.984375 1.910156 1.195312 2.171875 1.34375 C 2.441406 1.488281 2.835938 1.5625 3.359375 1.5625 Z M 3.359375 1.5625 "/></g></g><g transform="translate(409.885235, 724.502845)"><g><path d="M 0.9375 0 L 0.9375 -6.46875 L 2.515625 -6.46875 L 2.515625 -5.5 L 2.625 -5.484375 C 2.78125 -5.835938 2.984375 -6.097656 3.234375 -6.265625 C 3.492188 -6.429688 3.804688 -6.515625 4.171875 -6.515625 C 4.535156 -6.515625 4.816406 -6.453125 5.015625 -6.328125 L 4.734375 -4.9375 L 4.609375 -4.90625 C 4.503906 -4.945312 4.398438 -4.976562 4.296875 -5 C 4.203125 -5.019531 4.085938 -5.03125 3.953125 -5.03125 C 3.492188 -5.03125 3.144531 -4.867188 2.90625 -4.546875 C 2.675781 -4.234375 2.5625 -3.726562 2.5625 -3.03125 L 2.5625 0 Z M 0.9375 0 "/></g></g></g><g fill="#000000" fill-opacity="1"><g transform="translate(414.830547, 724.502845)"><g><path d="M 2.515625 0.125 C 2.109375 0.125 1.75 0.0507812 1.4375 -0.09375 C 1.132812 -0.25 0.898438 -0.472656 0.734375 -0.765625 C 0.578125 -1.066406 0.5 -1.425781 0.5 -1.84375 C 0.5 -2.226562 0.578125 -2.546875 0.734375 -2.796875 C 0.898438 -3.054688 1.15625 -3.269531 1.5 -3.4375 C 1.84375 -3.601562 2.289062 -3.734375 2.84375 -3.828125 C 3.226562 -3.890625 3.519531 -3.957031 3.71875 -4.03125 C 3.925781 -4.101562 4.066406 -4.1875 4.140625 -4.28125 C 4.210938 -4.375 4.25 -4.492188 4.25 -4.640625 C 4.25 -4.847656 4.175781 -5.003906 4.03125 -5.109375 C 3.882812 -5.222656 3.644531 -5.28125 3.3125 -5.28125 C 2.945312 -5.28125 2.601562 -5.195312 2.28125 -5.03125 C 1.957031 -4.875 1.675781 -4.664062 1.4375 -4.40625 L 1.3125 -4.40625 L 0.640625 -5.4375 C 0.960938 -5.800781 1.359375 -6.082031 1.828125 -6.28125 C 2.304688 -6.488281 2.828125 -6.59375 3.390625 -6.59375 C 4.242188 -6.59375 4.859375 -6.410156 5.234375 -6.046875 C 5.617188 -5.679688 5.8125 -5.164062 5.8125 -4.5 L 5.8125 -1.6875 C 5.8125 -1.394531 5.941406 -1.25 6.203125 -1.25 C 6.296875 -1.25 6.390625 -1.269531 6.484375 -1.3125 L 6.5625 -1.28125 L 6.6875 -0.15625 C 6.59375 -0.09375 6.46875 -0.0390625 6.3125 0 C 6.15625 0.03125 5.976562 0.046875 5.78125 0.046875 C 5.394531 0.046875 5.09375 -0.0234375 4.875 -0.171875 C 4.65625 -0.328125 4.5 -0.5625 4.40625 -0.875 L 4.296875 -0.890625 C 3.972656 -0.210938 3.378906 0.125 2.515625 0.125 Z M 3.03125 -1.09375 C 3.40625 -1.09375 3.703125 -1.21875 3.921875 -1.46875 C 4.148438 -1.71875 4.265625 -2.066406 4.265625 -2.515625 L 4.265625 -3.171875 L 4.15625 -3.203125 C 4.0625 -3.117188 3.9375 -3.050781 3.78125 -3 C 3.625 -2.945312 3.394531 -2.894531 3.09375 -2.84375 C 2.738281 -2.789062 2.484375 -2.691406 2.328125 -2.546875 C 2.179688 -2.398438 2.109375 -2.195312 2.109375 -1.9375 C 2.109375 -1.664062 2.1875 -1.457031 2.34375 -1.3125 C 2.507812 -1.164062 2.738281 -1.09375 3.03125 -1.09375 Z M 3.03125 -1.09375 "/></g></g><g transform="translate(421.645, 724.502845)"><g><path d="M 0.9375 2.625 L 0.9375 -6.46875 L 2.5625 -6.46875 L 2.5625 -5.625 L 2.671875 -5.59375 C 2.867188 -5.925781 3.125 -6.175781 3.4375 -6.34375 C 3.757812 -6.507812 4.140625 -6.59375 4.578125 -6.59375 C 5.085938 -6.59375 5.535156 -6.46875 5.921875 -6.21875 C 6.316406 -5.96875 6.625 -5.59375 6.84375 -5.09375 C 7.0625 -4.59375 7.171875 -3.972656 7.171875 -3.234375 C 7.171875 -2.492188 7.054688 -1.875 6.828125 -1.375 C 6.597656 -0.875 6.28125 -0.5 5.875 -0.25 C 5.46875 0 5 0.125 4.46875 0.125 C 4.0625 0.125 3.710938 0.0546875 3.421875 -0.078125 C 3.128906 -0.210938 2.878906 -0.421875 2.671875 -0.703125 L 2.5625 -0.6875 L 2.5625 2.625 Z M 4.015625 -1.25 C 4.492188 -1.25 4.859375 -1.40625 5.109375 -1.71875 C 5.359375 -2.039062 5.484375 -2.546875 5.484375 -3.234375 C 5.484375 -3.910156 5.359375 -4.40625 5.109375 -4.71875 C 4.859375 -5.039062 4.492188 -5.203125 4.015625 -5.203125 C 3.554688 -5.203125 3.191406 -5.035156 2.921875 -4.703125 C 2.660156 -4.378906 2.53125 -3.890625 2.53125 -3.234375 C 2.53125 -2.566406 2.660156 -2.066406 2.921875 -1.734375 C 3.191406 -1.410156 3.554688 -1.25 4.015625 -1.25 Z M 4.015625 -1.25 "/></g></g><g transform="translate(429.385234, 724.502845)"><g><path d="M 0.9375 0 L 0.9375 -9.0625 L 2.5625 -9.0625 L 2.5625 -5.625 L 2.671875 -5.59375 C 2.890625 -5.914062 3.15625 -6.160156 3.46875 -6.328125 C 3.78125 -6.503906 4.15625 -6.59375 4.59375 -6.59375 C 6.019531 -6.59375 6.734375 -5.78125 6.734375 -4.15625 L 6.734375 0 L 5.109375 0 L 5.109375 -3.953125 C 5.109375 -4.398438 5.019531 -4.722656 4.84375 -4.921875 C 4.675781 -5.117188 4.40625 -5.21875 4.03125 -5.21875 C 3.582031 -5.21875 3.222656 -5.066406 2.953125 -4.765625 C 2.691406 -4.460938 2.5625 -3.988281 2.5625 -3.34375 L 2.5625 0 Z M 0.9375 0 "/></g></g><g transform="translate(436.955546, 724.502845)"><g/></g><g transform="translate(439.785623, 724.502845)"><g><path d="M 4.453125 -1.546875 L 4.875 -0.34375 C 4.707031 -0.195312 4.488281 -0.0820312 4.21875 0 C 3.957031 0.0820312 3.65625 0.125 3.3125 0.125 C 2.613281 0.125 2.082031 -0.0625 1.71875 -0.4375 C 1.351562 -0.820312 1.171875 -1.378906 1.171875 -2.109375 L 1.171875 -5.1875 L 0.1875 -5.1875 L 0.1875 -6.46875 L 1.171875 -6.46875 L 1.171875 -7.734375 L 2.796875 -8 L 2.796875 -6.46875 L 4.640625 -6.46875 L 4.640625 -5.1875 L 2.796875 -5.1875 L 2.796875 -2.234375 C 2.796875 -1.910156 2.863281 -1.675781 3 -1.53125 C 3.132812 -1.382812 3.328125 -1.3125 3.578125 -1.3125 C 3.867188 -1.3125 4.125 -1.390625 4.34375 -1.546875 Z M 4.453125 -1.546875 "/></g></g></g><g fill="#000000" fill-opacity="1"><g transform="translate(444.730936, 724.502845)"><g><path d="M 6.390625 -2.859375 L 2.234375 -2.859375 C 2.273438 -2.296875 2.429688 -1.882812 2.703125 -1.625 C 2.984375 -1.375 3.359375 -1.25 3.828125 -1.25 C 4.203125 -1.25 4.503906 -1.316406 4.734375 -1.453125 C 4.960938 -1.597656 5.148438 -1.8125 5.296875 -2.09375 L 5.421875 -2.09375 L 6.5 -1.40625 C 6.28125 -0.945312 5.957031 -0.578125 5.53125 -0.296875 C 5.113281 -0.015625 4.546875 0.125 3.828125 0.125 C 3.160156 0.125 2.582031 0 2.09375 -0.25 C 1.613281 -0.507812 1.238281 -0.890625 0.96875 -1.390625 C 0.707031 -1.890625 0.578125 -2.503906 0.578125 -3.234375 C 0.578125 -3.960938 0.710938 -4.578125 0.984375 -5.078125 C 1.265625 -5.585938 1.640625 -5.96875 2.109375 -6.21875 C 2.585938 -6.46875 3.125 -6.59375 3.71875 -6.59375 C 4.632812 -6.59375 5.332031 -6.347656 5.8125 -5.859375 C 6.300781 -5.378906 6.546875 -4.671875 6.546875 -3.734375 C 6.546875 -3.390625 6.535156 -3.125 6.515625 -2.9375 Z M 5 -3.921875 C 4.976562 -4.410156 4.859375 -4.765625 4.640625 -4.984375 C 4.429688 -5.210938 4.125 -5.328125 3.71875 -5.328125 C 2.894531 -5.328125 2.410156 -4.859375 2.265625 -3.921875 Z M 5 -3.921875 "/></g></g></g><g fill="#000000" fill-opacity="1"><g transform="translate(451.656717, 724.502845)"><g><path d="M 1.828125 0 L 0.109375 0 L 1.953125 -3.359375 L 0.21875 -6.46875 L 1.953125 -6.46875 L 3.0625 -4.34375 L 3.203125 -4.34375 L 4.328125 -6.46875 L 6 -6.46875 L 4.3125 -3.359375 L 6.109375 0 L 4.375 0 L 3.15625 -2.359375 L 3.03125 -2.359375 Z M 1.828125 0 "/></g></g><g transform="translate(457.873513, 724.502845)"><g><path d="M 4.453125 -1.546875 L 4.875 -0.34375 C 4.707031 -0.195312 4.488281 -0.0820312 4.21875 0 C 3.957031 0.0820312 3.65625 0.125 3.3125 0.125 C 2.613281 0.125 2.082031 -0.0625 1.71875 -0.4375 C 1.351562 -0.820312 1.171875 -1.378906 1.171875 -2.109375 L 1.171875 -5.1875 L 0.1875 -5.1875 L 0.1875 -6.46875 L 1.171875 -6.46875 L 1.171875 -7.734375 L 2.796875 -8 L 2.796875 -6.46875 L 4.640625 -6.46875 L 4.640625 -5.1875 L 2.796875 -5.1875 L 2.796875 -2.234375 C 2.796875 -1.910156 2.863281 -1.675781 3 -1.53125 C 3.132812 -1.382812 3.328125 -1.3125 3.578125 -1.3125 C 3.867188 -1.3125 4.125 -1.390625 4.34375 -1.546875 Z M 4.453125 -1.546875 "/></g></g></g></svg>