<svg xmlns="http://www.w3.org/2000/svg" xmlns:xlink="http://www.w3.org/1999/xlink" width="1920" zoomAndPan="magnify" viewBox="0 0 1440 809.999993" height="1080" preserveAspectRatio="xMidYMid meet" version="1.0"><defs><clipPath id="5e5a071a18"><rect x="0" width="1440" y="0" height="810"/></clipPath><clipPath id="fb707ea1ce"><path d="M 195.171875 0 L 1244.828125 0 L 1244.828125 647.769531 L 195.171875 647.769531 Z M 195.171875 0 " clip-rule="nonzero"/></clipPath><clipPath id="8caf5f7f55"><path d="M 0.171875 0 L 1049.828125 0 L 1049.828125 647.769531 L 0.171875 647.769531 Z M 0.171875 0 " clip-rule="nonzero"/></clipPath><clipPath id="eca91d6bba"><rect x="0" width="1050" y="0" height="648"/></clipPath><clipPath id="8f146f2b2a"><path d="M 208.121094 0 L 1231.875 0 L 1231.875 576.066406 L 208.121094 576.066406 Z M 208.121094 0 " clip-rule="nonzero"/></clipPath><clipPath id="6579aee0f2"><path d="M 0.121094 0 L 1023.875 0 L 1023.875 576.066406 L 0.121094 576.066406 Z M 0.121094 0 " clip-rule="nonzero"/></clipPath><clipPath id="12ca8c8a61"><rect x="0" width="1024" y="0" height="577"/></clipPath><clipPath id="17f7bb0365"><path d="M 239.980469 0 L 1200.019531 0 L 1200.019531 539.484375 L 239.980469 539.484375 Z M 239.980469 0 " clip-rule="nonzero"/></clipPath><clipPath id="716f9ee238"><path d="M 0.980469 0 L 961.019531 0 L 961.019531 539.484375 L 0.980469 539.484375 Z M 0.980469 0 " clip-rule="nonzero"/></clipPath><clipPath id="f31c6a3598"><rect x="0" width="962" y="0" height="540"/></clipPath><clipPath id="2a588a0193"><path d="M 420.003906 0 L 1019.996094 0 L 1019.996094 450.28125 L 420.003906 450.28125 Z M 420.003906 0 " clip-rule="nonzero"/></clipPath><clipPath id="3751a3909c"><path d="M 0.00390625 0 L 599.996094 0 L 599.996094 450.28125 L 0.00390625 450.28125 Z M 0.00390625 0 " clip-rule="nonzero"/></clipPath><clipPath id="a97bfd1b5d"><rect x="0" width="600" y="0" height="451"/></clipPath><clipPath id="23e6796e49"><path d="M 565.566406 0 L 874.433594 0 L 874.433594 685.875 L 565.566406 685.875 Z M 565.566406 0 " clip-rule="nonzero"/></clipPath><clipPath id="7001e98f65"><path d="M 0.566406 0 L 309.433594 0 L 309.433594 685.875 L 0.566406 685.875 Z M 0.566406 0 " clip-rule="nonzero"/></clipPath><clipPath id="8c9944ae13"><rect x="0" width="310" y="0" height="686"/></clipPath><clipPath id="93d7c5abbb"><path d="M 572.722656 0 L 867.277344 0 L 867.277344 654.929688 L 572.722656 654.929688 Z M 572.722656 0 " clip-rule="nonzero"/></clipPath><clipPath id="0167f15f3b"><path d="M 0.722656 0 L 295.277344 0 L 295.277344 654.929688 L 0.722656 654.929688 Z M 0.722656 0 " clip-rule="nonzero"/></clipPath><clipPath id="2943c0ba64"><rect x="0" width="296" y="0" height="655"/></clipPath><clipPath id="95a1998119"><path d="M 573.792969 0 L 866.207031 0 L 866.207031 633.550781 L 573.792969 633.550781 Z M 573.792969 0 " clip-rule="nonzero"/></clipPath><clipPath id="f0ca9e29eb"><path d="M 0.792969 0 L 293.207031 0 L 293.207031 633.550781 L 0.792969 633.550781 Z M 0.792969 0 " clip-rule="nonzero"/></clipPath><clipPath id="5b6bd85b7e"><rect x="0" width="294" y="0" height="634"/></clipPath><clipPath id="d2808885cf"><path d="M 579.421875 0 L 860.578125 0 L 860.578125 608.792969 L 579.421875 608.792969 Z M 579.421875 0 " clip-rule="nonzero"/></clipPath><clipPath id="80a284ba4a"><path d="M 0.421875 0 L 281.578125 0 L 281.578125 608.792969 L 0.421875 608.792969 Z M 0.421875 0 " clip-rule="nonzero"/></clipPath><clipPath id="ff9af3b601"><rect x="0" width="282" y="0" height="609"/></clipPath><clipPath id="2c34be2c1d"><path d="M 585.046875 0 L 854.953125 0 L 854.953125 599.792969 L 585.046875 599.792969 Z M 585.046875 0 " clip-rule="nonzero"/></clipPath><clipPath id="676f5dc3b9"><path d="M 0.046875 0 L 269.953125 0 L 269.953125 599.792969 L 0.046875 599.792969 Z M 0.046875 0 " clip-rule="nonzero"/></clipPath><clipPath id="886330b2f2"><rect x="0" width="270" y="0" height="600"/></clipPath></defs><rect x="-144" width="1728" fill="#ffffff" y="-80.999999" height="971.999992" fill-opacity="1"/><rect x="-144" width="1728" fill="#ffffff" y="-80.999999" height="971.999992" fill-opacity="1"/><g transform="matrix(1, 0, 0, 1, 0, 0.000000000000039746)"><g clip-path="url(#5e5a071a18)"><path fill="#caf5f7" d="M 0 0 L 1439.648438 0 L 1439.648438 810 L 0 810 Z M 0 0 " fill-opacity="1" fill-rule="nonzero"/></g></g><g clip-path="url(#fb707ea1ce)"><g transform="matrix(1, 0, 0, 1, 195, 0.000000000000039746)"><g clip-path="url(#eca91d6bba)"><g clip-path="url(#8caf5f7f55)"><path fill="#ffd9c2" d="M 0.171875 0 L 1050.269531 0 L 1050.269531 647.769531 L 0.171875 647.769531 Z M 0.171875 0 " fill-opacity="1" fill-rule="nonzero"/></g></g></g></g><g clip-path="url(#8f146f2b2a)"><g transform="matrix(1, 0, 0, 1, 208, 0.000000000000039746)"><g clip-path="url(#12ca8c8a61)"><g clip-path="url(#6579aee0f2)"><path fill="#ffe7c2" d="M 0.121094 0 L 1023.992188 0 L 1023.992188 576.066406 L 0.121094 576.066406 Z M 0.121094 0 " fill-opacity="1" fill-rule="nonzero"/></g></g></g></g><g clip-path="url(#17f7bb0365)"><g transform="matrix(1, 0, 0, 1, 239, 0.000000000000039746)"><g clip-path="url(#f31c6a3598)"><g clip-path="url(#716f9ee238)"><path fill="#ffc2e8" d="M 0.980469 0 L 961.9375 0 L 961.9375 539.484375 L 0.980469 539.484375 Z M 0.980469 0 " fill-opacity="1" fill-rule="nonzero"/></g></g></g></g><g clip-path="url(#2a588a0193)"><g transform="matrix(1, 0, 0, 1, 420, 0.000000000000039746)"><g clip-path="url(#a97bfd1b5d)"><g clip-path="url(#3751a3909c)"><path fill="#d8c7fa" d="M 0.00390625 0 L 599.792969 0 L 599.792969 450.28125 L 0.00390625 450.28125 Z M 0.00390625 0 " fill-opacity="1" fill-rule="nonzero"/></g></g></g></g><g clip-path="url(#23e6796e49)"><g transform="matrix(1, 0, 0, 1, 565, 0.000000000000039746)"><g clip-path="url(#8c9944ae13)"><g clip-path="url(#7001e98f65)"><path fill="#d9f4cd" d="M 0.566406 0 L 309.433594 0 L 309.433594 685.304688 L 0.566406 685.304688 Z M 0.566406 0 " fill-opacity="1" fill-rule="nonzero"/></g></g></g></g><g clip-path="url(#93d7c5abbb)"><g transform="matrix(1, 0, 0, 1, 572, 0.000000000000039746)"><g clip-path="url(#2943c0ba64)"><g clip-path="url(#0167f15f3b)"><path fill="#ffe7c2" d="M 0.722656 0 L 295.277344 0 L 295.277344 654.695312 L 0.722656 654.695312 Z M 0.722656 0 " fill-opacity="1" fill-rule="nonzero"/></g></g></g></g><g clip-path="url(#95a1998119)"><g transform="matrix(1, 0, 0, 1, 573, 0.000000000000039746)"><g clip-path="url(#5b6bd85b7e)"><g clip-path="url(#f0ca9e29eb)"><path fill="#ffd9c2" d="M 0.792969 0 L 293.207031 0 L 293.207031 633.941406 L 0.792969 633.941406 Z M 0.792969 0 " fill-opacity="1" fill-rule="nonzero"/></g></g></g></g><g clip-path="url(#d2808885cf)"><g transform="matrix(1, 0, 0, 1, 579, 0.000000000000039746)"><g clip-path="url(#ff9af3b601)"><g clip-path="url(#80a284ba4a)"><path fill="#ffc2e8" d="M 0.421875 0 L 281.578125 0 L 281.578125 608.445312 L 0.421875 608.445312 Z M 0.421875 0 " fill-opacity="1" fill-rule="nonzero"/></g></g></g></g><g clip-path="url(#2c34be2c1d)"><g transform="matrix(1, 0, 0, 1, 585, 0.000000000000039746)"><g clip-path="url(#886330b2f2)"><g clip-path="url(#676f5dc3b9)"><path fill="#d8c7fa" d="M 0.046875 0 L 269.953125 0 L 269.953125 599.910156 L 0.046875 599.910156 Z M 0.046875 0 " fill-opacity="1" fill-rule="nonzero"/></g></g></g></g></svg>